<svg id="Layer_1" data-name="Layer 1" xmlns="http://www.w3.org/2000/svg" xmlns:xlink="http://www.w3.org/1999/xlink" viewBox="0 0 25 25"><defs><style>.cls-1{fill:url(#linear-gradient);}</style><linearGradient id="linear-gradient" x1="4.1" y1="12.5" x2="22.3" y2="12.5" gradientUnits="userSpaceOnUse"><stop offset="0" stop-color="#b47a1a"/><stop offset="0.05" stop-color="#b9811e"/><stop offset="0.13" stop-color="#c69429"/><stop offset="0.22" stop-color="#dcb33c"/><stop offset="0.32" stop-color="#fade56"/><stop offset="0.33" stop-color="#ffe55a"/><stop offset="0.52" stop-color="#ffec88"/><stop offset="0.66" stop-color="#ffe55a"/><stop offset="1" stop-color="#b47a1a"/></linearGradient></defs><title>favicon-diamond-nails</title><path class="cls-1" d="M11.37,2.24H4.1V12.83a15.74,15.74,0,0,1,11.43-2,12,12,0,0,0-6.81-.89V6H11a6.47,6.47,0,0,1,4.76,1.68,6.19,6.19,0,0,1,1.69,4.61,6.77,6.77,0,0,1-1.71,4.9A6.14,6.14,0,0,1,11,19H8.72V16a12.6,12.6,0,0,0,4.12-4,24.69,24.69,0,0,1-5,3.47l-.78.38a12.52,12.52,0,0,1-3,1v.43h.06l-.06,0v5.54h7.27a11,11,0,0,0,7.94-2.87,10.08,10.08,0,0,0,3-7.65Q22.3,2.25,11.37,2.24Z"/></svg>